<svg width="163.000000" height="48.000000" viewBox="0 0 163 48" fill="none" xmlns="http://www.w3.org/2000/svg" xmlns:xlink="http://www.w3.org/1999/xlink">
	<desc>
			Created with Pixso.
	</desc>
	<defs>
		<clipPath id="clip61_54">
			<rect id="Company logo" width="163.000000" height="48.000000" fill="white" fill-opacity="0"/>
		</clipPath>
	</defs>
	<rect id="Company logo" width="163.000000" height="48.000000" fill="#FFFFFF" fill-opacity="0"/>
	<g clip-path="url(#clip61_54)">
		<path id="Vector" d="M45.05 14.01L52.67 14.01C57.53 14.01 61.54 16.82 61.54 23.24L61.54 24.59C61.54 31.06 57.79 33.97 52.81 33.97L45.05 33.97L45.05 14.01ZM49.3 17.63L49.3 30.33L52.57 30.33C55.33 30.33 57.19 28.52 57.19 24.51L57.19 23.45C57.19 19.44 55.24 17.63 52.42 17.63L49.3 17.63ZM63.8 17.83L67.21 17.83L67.77 21.58C68.42 19.03 70.07 17.66 73.08 17.66L74.14 17.66L74.14 21.97L72.38 21.97C68.92 21.97 68.07 23.17 68.07 26.59L68.07 34.01L63.87 34.01L63.87 17.83L63.8 17.83ZM74.98 26.25L74.98 25.79C74.98 20.38 78.44 17.42 83.16 17.42C87.97 17.42 91.33 20.38 91.33 25.79L91.33 26.25C91.33 31.56 88.06 34.42 83.16 34.42C77.94 34.37 74.98 31.58 74.98 26.25ZM87.02 26.2L87.02 25.79C87.02 22.78 85.51 20.98 83.11 20.98C80.75 20.98 79.19 22.64 79.19 25.79L79.19 26.2C79.19 29.11 80.7 30.76 83.11 30.76C85.51 30.72 87.02 29.11 87.02 26.2ZM93.54 17.83L97.05 17.83L97.46 20.88C98.3 18.83 100.11 17.42 102.77 17.42C106.88 17.42 109.6 20.38 109.6 25.86L109.6 26.31C109.6 31.63 106.59 34.44 102.77 34.44C100.22 34.44 98.47 33.28 97.6 31.43L97.6 39.6L93.49 39.6L93.54 17.83ZM105.32 26.2L105.32 25.84C105.32 22.62 103.67 21.03 101.46 21.03C99.1 21.03 97.54 22.83 97.54 25.84L97.54 26.15C97.54 29.01 99.05 30.81 101.41 30.81C103.83 30.76 105.32 29.22 105.32 26.2ZM115.82 31.02L115.47 33.98L111.86 33.98L111.86 12.42L115.97 12.42L115.97 20.69C116.88 18.57 118.68 17.42 121.23 17.42C125.1 17.47 127.96 20.14 127.96 25.5L127.96 26C127.96 31.37 125.25 34.44 121.14 34.44C118.42 34.37 116.67 33.12 115.82 31.02ZM123.64 26L123.64 25.6C123.64 22.64 122.03 20.98 119.77 20.98C117.46 20.98 115.86 22.83 115.86 25.64L115.86 26C115.86 29.01 117.42 30.76 119.72 30.76C122.19 30.76 123.64 29.22 123.64 26ZM129.77 26.25L129.77 25.79C129.77 20.38 133.23 17.42 137.94 17.42C142.75 17.42 146.12 20.38 146.12 25.79L146.12 26.25C146.12 31.56 142.8 34.42 137.94 34.42C132.72 34.37 129.77 31.58 129.77 26.25ZM141.84 26.2L141.84 25.79C141.84 22.78 140.33 20.98 137.92 20.98C135.57 20.98 134.01 22.64 134.01 25.79L134.01 26.2C134.01 29.11 135.52 30.76 137.92 30.76C140.35 30.72 141.84 29.11 141.84 26.2ZM151.63 25.6L145.95 17.83L150.81 17.83L154.08 22.69L157.39 17.83L162.21 17.83L156.45 25.55L162.51 33.98L157.75 33.98L154.05 28.62L150.44 33.98L145.47 33.98L151.63 25.6Z" fill="#272D38" fill-opacity="1.000000" fill-rule="nonzero"/>
		<path id="Vector" d="M18.85 14.01L9.42 20.02L18.85 26.03L9.42 32.05L0 26L9.42 19.99L0 14.01L9.42 8L18.85 14.01ZM9.37 33.98L18.8 27.97L28.22 33.98L18.8 40L9.37 33.98ZM18.85 26L28.27 19.99L18.85 14.01L28.22 8L37.65 14.01L28.22 20.02L37.65 26.03L28.22 32.05L18.85 26Z" fill="#272D38" fill-opacity="1.000000" fill-rule="evenodd"/>
	</g>
</svg>
