<svg width="140.000000" height="48.000000" viewBox="0 0 140 48" fill="none" xmlns="http://www.w3.org/2000/svg" xmlns:xlink="http://www.w3.org/1999/xlink">
	<desc>
			Created with Pixso.
	</desc>
	<defs>
		<clipPath id="clip61_52">
			<rect id="Company logo" width="140.000000" height="48.000000" fill="white" fill-opacity="0"/>
		</clipPath>
	</defs>
	<rect id="Company logo" width="140.000000" height="48.000000" fill="#FFFFFF" fill-opacity="0"/>
	<g clip-path="url(#clip61_52)">
		<path id="Vector" d="M21.07 3.07C9.47 3.07 0.07 12.48 0.07 24.07C0.07 35.67 9.47 45.07 21.07 45.07C32.67 45.07 42.07 35.67 42.07 24.07C42.07 12.48 32.67 3.08 21.07 3.08L21.07 3.07ZM30.7 33.36C30.32 33.98 29.51 34.17 28.9 33.8C23.97 30.78 17.76 30.1 10.45 31.77C9.75 31.93 9.04 31.49 8.88 30.79C8.72 30.08 9.16 29.38 9.87 29.22C17.87 27.39 24.73 28.18 30.26 31.56C30.88 31.94 31.08 32.75 30.7 33.36ZM33.27 27.64C32.79 28.41 31.79 28.66 31.02 28.18C25.37 24.71 16.77 23.71 10.09 25.74C9.22 26 8.31 25.51 8.05 24.65C7.79 23.78 8.27 22.87 9.14 22.6C16.77 20.29 26.25 21.41 32.73 25.39C33.5 25.87 33.74 26.88 33.27 27.64L33.27 27.64ZM33.49 21.69C26.72 17.67 15.55 17.3 9.09 19.26C8.05 19.58 6.96 18.99 6.64 17.95C6.33 16.91 6.91 15.82 7.95 15.5C15.37 13.25 27.7 13.69 35.49 18.31C36.43 18.87 36.74 20.07 36.18 21C35.63 21.94 34.42 22.24 33.49 21.69L33.49 21.69ZM57.2 22.46C53.58 21.6 52.93 20.99 52.93 19.71C52.93 18.51 54.07 17.7 55.75 17.7C57.39 17.7 59.01 18.31 60.71 19.58C60.76 19.62 60.82 19.63 60.89 19.62C60.95 19.62 61.01 19.58 61.04 19.53L62.81 17.03C62.89 16.93 62.87 16.79 62.77 16.71C60.75 15.09 58.47 14.3 55.81 14.3C51.89 14.3 49.16 16.65 49.16 20.01C49.16 23.61 51.51 24.89 55.59 25.87C59.06 26.67 59.65 27.34 59.65 28.54C59.65 29.87 58.46 30.69 56.56 30.69C54.44 30.69 52.71 29.98 50.78 28.31C50.74 28.26 50.67 28.25 50.61 28.25C50.54 28.25 50.49 28.28 50.45 28.33L48.46 30.69C48.38 30.79 48.39 30.94 48.48 31.03C50.73 33.03 53.49 34.09 56.48 34.09C60.7 34.09 63.42 31.78 63.42 28.22C63.43 25.21 61.63 23.54 57.21 22.46L57.2 22.46ZM72.97 18.88C71.14 18.88 69.64 19.6 68.4 21.08L68.4 19.42C68.4 19.29 68.29 19.18 68.16 19.18L64.92 19.18C64.79 19.18 64.68 19.29 64.68 19.42L64.68 37.88C64.68 38.01 64.79 38.11 64.92 38.11L68.16 38.11C68.29 38.11 68.4 38.01 68.4 37.88L68.4 32.05C69.64 33.44 71.14 34.12 72.97 34.12C76.36 34.12 79.8 31.5 79.8 26.5C79.81 21.5 76.37 18.88 72.97 18.88L72.97 18.88ZM76.03 26.5C76.03 29.05 74.46 30.82 72.21 30.82C69.99 30.82 68.32 28.97 68.32 26.5C68.32 24.04 69.99 22.18 72.21 22.18C74.42 22.18 76.03 24 76.03 26.5L76.03 26.5ZM88.62 18.88C84.24 18.88 80.82 22.25 80.82 26.56C80.82 30.81 84.22 34.14 88.57 34.14C92.96 34.14 96.4 30.79 96.4 26.5C96.4 22.23 92.98 18.88 88.62 18.88L88.62 18.88ZM88.62 30.85C86.29 30.85 84.54 28.98 84.54 26.5C84.54 24.01 86.23 22.2 88.57 22.2C90.91 22.2 92.67 24.07 92.67 26.55C92.67 29.04 90.97 30.85 88.62 30.85ZM105.74 19.18L102.17 19.18L102.17 15.53C102.17 15.4 102.06 15.29 101.93 15.29L98.68 15.29C98.55 15.29 98.44 15.4 98.44 15.53L98.44 19.18L96.88 19.18C96.75 19.18 96.65 19.29 96.65 19.42L96.65 22.21C96.65 22.34 96.75 22.45 96.88 22.45L98.44 22.45L98.44 29.67C98.44 32.58 99.9 34.06 102.76 34.06C103.93 34.06 104.89 33.82 105.8 33.31C105.88 33.27 105.92 33.19 105.92 33.1L105.92 30.44C105.92 30.36 105.88 30.29 105.81 30.24C105.74 30.2 105.65 30.2 105.58 30.23C104.95 30.55 104.35 30.69 103.67 30.69C102.63 30.69 102.17 30.22 102.17 29.16L102.17 22.45L105.74 22.45C105.87 22.45 105.98 22.34 105.98 22.21L105.98 19.42C105.98 19.29 105.88 19.18 105.74 19.18L105.74 19.18ZM118.19 19.2L118.19 18.75C118.19 17.43 118.69 16.84 119.83 16.84C120.51 16.84 121.05 16.97 121.66 17.18C121.73 17.2 121.81 17.19 121.87 17.14C121.93 17.1 121.97 17.03 121.97 16.95L121.97 14.21C121.97 14.11 121.9 14.02 121.8 13.99C121.16 13.79 120.34 13.6 119.1 13.6C116.11 13.6 114.52 15.29 114.52 18.48L114.52 19.17L112.96 19.17C112.83 19.17 112.72 19.27 112.72 19.4L112.72 22.21C112.72 22.34 112.83 22.45 112.96 22.45L114.52 22.45L114.52 33.58C114.52 33.72 114.63 33.82 114.76 33.82L118 33.82C118.14 33.82 118.24 33.72 118.24 33.58L118.24 22.45L121.27 22.45L125.92 33.58C125.39 34.75 124.87 34.98 124.16 34.98C123.59 34.98 122.99 34.81 122.37 34.48C122.32 34.45 122.25 34.44 122.19 34.46C122.12 34.48 122.07 34.53 122.04 34.59L120.94 37C120.89 37.12 120.94 37.25 121.05 37.31C122.2 37.93 123.23 38.2 124.51 38.2C126.91 38.2 128.24 37.08 129.4 34.07L135.03 19.52C135.07 19.45 135.05 19.36 135.01 19.3C134.97 19.24 134.89 19.2 134.82 19.2L131.44 19.2C131.33 19.2 131.24 19.26 131.21 19.36L127.75 29.24L123.96 19.35C123.92 19.26 123.83 19.2 123.74 19.2L118.19 19.2L118.19 19.2ZM110.97 19.18L107.72 19.18C107.59 19.18 107.49 19.29 107.49 19.42L107.49 33.58C107.49 33.72 107.59 33.82 107.72 33.82L110.97 33.82C111.1 33.82 111.21 33.72 111.21 33.58L111.21 19.42C111.21 19.29 111.1 19.18 110.97 19.18L110.97 19.18ZM109.37 12.73C108.08 12.73 107.04 13.77 107.04 15.06C107.04 16.35 108.08 17.39 109.37 17.39C110.65 17.39 111.69 16.35 111.69 15.06C111.69 13.77 110.65 12.73 109.37 12.73ZM137.81 23.74C136.52 23.74 135.52 22.7 135.52 21.45C135.52 20.2 136.54 19.15 137.82 19.15C139.1 19.15 140.11 20.19 140.11 21.44C140.11 22.69 139.09 23.74 137.81 23.74ZM137.82 19.38C136.65 19.38 135.76 20.31 135.76 21.45C135.76 22.59 136.64 23.51 137.81 23.51C138.98 23.51 139.86 22.58 139.86 21.44C139.86 20.3 138.98 19.38 137.82 19.38ZM138.33 21.67L138.97 22.58L138.43 22.58L137.85 21.75L137.35 21.75L137.35 22.58L136.89 22.58L136.89 20.18L137.96 20.18C138.52 20.18 138.88 20.46 138.88 20.94C138.89 21.34 138.66 21.58 138.33 21.67L138.33 21.67ZM137.94 20.59L137.35 20.59L137.35 21.35L137.94 21.35C138.24 21.35 138.42 21.2 138.42 20.97C138.42 20.72 138.24 20.59 137.94 20.59Z" fill="#272D38" fill-opacity="1.000000" fill-rule="nonzero"/>
	</g>
</svg>
