<svg width="98.000000" height="48.000000" viewBox="0 0 98 48" fill="none" xmlns="http://www.w3.org/2000/svg" xmlns:xlink="http://www.w3.org/1999/xlink">
	<desc>
			Created with Pixso.
	</desc>
	<defs>
		<clipPath id="clip61_55">
			<rect id="Company logo" width="98.000000" height="48.000000" fill="white" fill-opacity="0"/>
		</clipPath>
	</defs>
	<rect id="Company logo" width="98.000000" height="48.000000" fill="#FFFFFF" fill-opacity="0"/>
	<g clip-path="url(#clip61_55)">
		<path id="Vector" d="M79.7 20.59C80.08 21.24 80.2 21.97 80.24 22.8L80.29 23.9L80.29 31.6L80.35 32.7C80.46 34.5 81.78 35.83 83.6 35.94L84.69 36L84.69 23.9L84.75 22.8C84.79 21.98 84.91 21.23 85.29 20.58C85.68 19.92 86.24 19.36 86.9 18.98C87.57 18.59 88.33 18.39 89.1 18.39C89.87 18.4 90.63 18.6 91.3 18.99C91.97 19.37 92.52 19.93 92.9 20.6C93.28 21.24 93.39 21.99 93.44 22.8L93.49 23.9L93.49 31.6L93.55 32.7C93.66 34.51 94.98 35.84 96.8 35.94L97.89 36L97.89 22.8C97.89 20.46 96.97 18.23 95.32 16.58C93.67 14.93 91.43 14 89.1 14C87.85 14 86.61 14.26 85.47 14.78C84.34 15.29 83.32 16.04 82.5 16.98C81.67 16.04 80.65 15.29 79.52 14.78C78.38 14.26 77.14 14 75.89 14C74.07 14 72.37 14.55 70.97 15.51C70.11 14.55 68.19 14 67.09 14L67.09 36L68.19 35.94C70.03 35.82 71.36 34.52 71.44 32.7L71.5 31.6L71.5 23.9L71.55 22.8C71.6 21.97 71.71 21.24 72.09 20.59C72.47 19.92 73.03 19.37 73.7 18.98C74.37 18.6 75.12 18.4 75.89 18.4C76.67 18.4 77.42 18.6 78.09 18.98C78.76 19.37 79.32 19.92 79.7 20.59ZM4.39 35.94L5.5 36L21.99 36L21.94 34.9C21.79 33.09 20.51 31.77 18.7 31.65L17.59 31.6L7.7 31.6L20.89 18.39L20.84 17.3C20.75 15.47 19.42 14.15 17.59 14.05L16.49 14L0 14L0.05 15.1C0.19 16.89 1.49 18.24 3.29 18.34L4.39 18.4L14.29 18.4L1.1 31.6L1.15 32.7C1.26 34.51 2.57 35.82 4.39 35.94L4.39 35.94ZM62.77 17.22C63.8 18.24 64.61 19.45 65.16 20.78C65.71 22.12 66 23.55 66 24.99C66 26.44 65.71 27.87 65.16 29.2C64.61 30.54 63.8 31.75 62.77 32.77C60.71 34.83 57.91 35.99 54.99 35.99C52.08 35.99 49.28 34.83 47.21 32.77C42.92 28.48 42.92 21.51 47.21 17.22C48.23 16.2 49.45 15.39 50.78 14.83C52.11 14.28 53.54 14 54.99 14C56.43 13.99 57.87 14.28 59.2 14.83C60.54 15.38 61.75 16.19 62.77 17.22L62.77 17.22ZM59.66 20.33C60.9 21.57 61.59 23.25 61.59 25C61.59 26.75 60.9 28.43 59.66 29.67C58.42 30.9 56.74 31.6 54.99 31.6C53.24 31.6 51.56 30.9 50.33 29.67C49.09 28.43 48.39 26.75 48.39 25C48.39 23.25 49.09 21.57 50.33 20.33C51.56 19.09 53.24 18.4 54.99 18.4C56.74 18.4 58.42 19.09 59.66 20.33ZM31.9 14C33.34 14 34.77 14.28 36.11 14.83C37.44 15.39 38.65 16.2 39.67 17.22C43.97 21.51 43.97 28.48 39.67 32.77C37.61 34.83 34.81 35.99 31.89 35.99C28.98 35.99 26.18 34.83 24.11 32.77C19.82 28.48 19.82 21.51 24.11 17.22C25.14 16.2 26.35 15.39 27.68 14.83C29.01 14.28 30.44 14 31.89 14L31.9 14ZM36.56 20.33C37.8 21.57 38.49 23.25 38.49 25C38.49 26.75 37.8 28.43 36.56 29.66C35.32 30.9 33.64 31.6 31.89 31.6C30.14 31.6 28.47 30.9 27.23 29.66C25.99 28.43 25.29 26.75 25.29 25C25.29 23.25 25.99 21.57 27.23 20.33C28.47 19.09 30.14 18.4 31.89 18.4C33.64 18.4 35.32 19.09 36.56 20.33L36.56 20.33Z" fill="#272D38" fill-opacity="1.000000" fill-rule="evenodd"/>
	</g>
</svg>
