<svg width="121.000000" height="48.000000" viewBox="0 0 121 48" fill="none" xmlns="http://www.w3.org/2000/svg" xmlns:xlink="http://www.w3.org/1999/xlink">
	<desc>
			Created with Pixso.
	</desc>
	<defs>
		<clipPath id="clip61_53">
			<rect id="Company logo" width="121.000000" height="48.000000" fill="white" fill-opacity="0"/>
		</clipPath>
	</defs>
	<rect id="Company logo" width="121.000000" height="48.000000" fill="#FFFFFF" fill-opacity="0"/>
	<g clip-path="url(#clip61_53)">
		<path id="Vector" d="M37.92 32.42L39.39 28.99C41 30.18 43.09 30.81 45.19 30.81C46.73 30.81 47.71 30.22 47.71 29.31C47.67 26.78 38.44 28.74 38.37 22.41C38.34 19.18 41.21 16.7 45.26 16.7C47.67 16.7 50.08 17.29 51.79 18.66L50.42 22.16C48.85 21.15 46.9 20.45 45.05 20.45C43.79 20.45 42.95 21.04 42.95 21.81C42.99 24.3 52.28 22.93 52.39 28.99C52.39 32.28 49.59 34.59 45.61 34.59C42.67 34.59 39.98 33.89 37.92 32.42L37.92 32.42ZM96.38 27.75C96.01 28.41 95.47 28.95 94.82 29.34C94.16 29.72 93.42 29.92 92.67 29.92C90.31 29.92 88.4 28 88.4 25.65C88.4 23.29 90.31 21.37 92.67 21.37C93.42 21.37 94.16 21.57 94.82 21.96C95.47 22.34 96.01 22.89 96.38 23.54L100.46 21.28C98.93 18.55 96.01 16.7 92.67 16.7C87.73 16.7 83.74 20.7 83.74 25.65C83.74 30.59 87.73 34.59 92.67 34.59C96.01 34.59 98.93 32.75 100.46 30.01L96.38 27.75ZM55.04 34.24L60.14 34.24L60.14 9.25L55.04 9.25L55.04 34.24ZM103.04 9.25L103.04 34.24L108.14 34.24L108.14 26.75L114.19 34.24L120.71 34.24L113.02 25.35L120.15 17.05L113.91 17.05L108.14 23.95L108.14 9.25L103.04 9.25ZM75.86 17.05L75.86 19.08C75.02 17.68 72.96 16.7 70.79 16.7C66.32 16.7 62.79 20.66 62.79 25.63C62.79 30.6 66.32 34.59 70.79 34.59C72.96 34.59 75.02 33.61 75.86 32.21L75.86 34.24L80.96 34.24L80.96 17.05L75.86 17.05ZM75.86 27.78C75.13 29.01 73.59 29.92 71.88 29.92C69.52 29.92 67.61 28 67.61 25.65C67.61 23.29 69.52 21.37 71.88 21.37C73.59 21.37 75.13 22.32 75.86 23.58L75.86 27.78Z" fill="#272D38" fill-opacity="1.000000" fill-rule="nonzero"/>
		<path id="Vector" d="M10.97 8.7C9.32 8.7 7.98 10.04 7.98 11.7C7.98 12.09 8.06 12.48 8.21 12.85C8.36 13.21 8.58 13.54 8.86 13.82C9.13 14.1 9.46 14.32 9.83 14.47C10.19 14.62 10.58 14.7 10.97 14.7L13.97 14.7L13.97 11.7C13.97 10.9 13.65 10.14 13.09 9.58C12.53 9.02 11.77 8.7 10.97 8.7ZM10.97 16.7L2.99 16.7C1.34 16.7 0 18.04 0 19.7C0 21.36 1.34 22.7 2.99 22.7L10.97 22.7C12.63 22.7 13.97 21.36 13.97 19.7C13.97 18.04 12.63 16.7 10.97 16.7Z" fill="#272D38" fill-opacity="1.000000" fill-rule="nonzero"/>
		<path id="Vector" d="M29.94 19.7C29.94 18.04 28.6 16.7 26.94 16.7C25.29 16.7 23.95 18.04 23.95 19.7L23.95 22.7L26.94 22.7C27.74 22.7 28.5 22.38 29.06 21.82C29.62 21.26 29.94 20.49 29.94 19.7ZM21.95 19.7L21.95 11.7C21.95 10.9 21.64 10.14 21.08 9.58C20.51 9.02 19.75 8.7 18.96 8.7C17.3 8.7 15.96 10.04 15.96 11.7L15.96 19.7C15.96 21.36 17.3 22.7 18.96 22.7C19.75 22.7 20.51 22.38 21.08 21.82C21.64 21.26 21.95 20.49 21.95 19.7L21.95 19.7Z" fill="#272D38" fill-opacity="1.000000" fill-rule="nonzero"/>
		<path id="Vector" d="M18.96 38.7C19.75 38.7 20.51 38.38 21.08 37.82C21.64 37.26 21.95 36.49 21.95 35.7C21.95 34.9 21.64 34.14 21.08 33.58C20.51 33.02 19.75 32.7 18.96 32.7L15.96 32.7L15.96 35.7C15.96 37.36 17.3 38.7 18.96 38.7ZM18.96 30.7L26.94 30.7C28.6 30.7 29.94 29.36 29.94 27.7C29.94 26.9 29.62 26.14 29.06 25.58C28.5 25.02 27.74 24.7 26.94 24.7L18.96 24.7C17.3 24.7 15.96 26.04 15.96 27.7C15.96 28.09 16.04 28.48 16.19 28.85C16.34 29.21 16.56 29.54 16.84 29.82C17.12 30.1 17.45 30.32 17.81 30.47C18.17 30.62 18.56 30.7 18.96 30.7L18.96 30.7Z" fill="#272D38" fill-opacity="1.000000" fill-rule="nonzero"/>
		<path id="Vector" d="M0 27.7C-0.01 28.09 0.07 28.48 0.22 28.85C0.37 29.21 0.59 29.54 0.87 29.82C1.15 30.1 1.48 30.32 1.84 30.47C2.21 30.62 2.6 30.7 2.99 30.7C3.78 30.7 4.55 30.38 5.11 29.82C5.67 29.26 5.98 28.49 5.98 27.7L5.98 24.7L2.99 24.7C1.34 24.7 0 26.04 0 27.7ZM7.98 27.7L7.98 35.7C7.98 37.36 9.32 38.7 10.97 38.7C11.77 38.7 12.53 38.38 13.09 37.82C13.65 37.26 13.97 36.49 13.97 35.7L13.97 27.7C13.97 27.3 13.89 26.92 13.74 26.55C13.59 26.19 13.37 25.86 13.09 25.58C12.81 25.3 12.48 25.08 12.12 24.93C11.76 24.78 11.37 24.7 10.97 24.7C9.32 24.7 7.98 26.04 7.98 27.7Z" fill="#272D38" fill-opacity="1.000000" fill-rule="nonzero"/>
	</g>
</svg>
